<?xml version="1.0" encoding="UTF-8"?>
<svg width="450px" height="809px" viewBox="0 0 450 809" version="1.1" xmlns="http://www.w3.org/2000/svg" xmlns:xlink="http://www.w3.org/1999/xlink">
    <title>handheld-displlay-app</title>
    <defs>
        <polygon id="path-1" points="0 0 450 0 450 64 0 64"></polygon>
        <filter x="-1.6%" y="-7.8%" width="103.1%" height="121.9%" filterUnits="objectBoundingBox" id="filter-2">
            <feOffset dx="0" dy="2" in="SourceAlpha" result="shadowOffsetOuter1"></feOffset>
            <feGaussianBlur stdDeviation="2" in="shadowOffsetOuter1" result="shadowBlurOuter1"></feGaussianBlur>
            <feColorMatrix values="0 0 0 0 0   0 0 0 0 0   0 0 0 0 0  0 0 0 0.244645979 0" type="matrix" in="shadowBlurOuter1"></feColorMatrix>
        </filter>
    </defs>
    <g id="handheld-display-app" stroke="none" stroke-width="1" fill="none" fill-rule="evenodd">
        <rect id="art-board-bg" fill="#FFFFFF" x="0" y="0" width="450" height="809"></rect>
        <g id="bg-group-graph" transform="translate(17.000000, 531.000000)">
            <rect id="bg-graph" stroke="#979797" fill="#EEEEEE" x="0.5" y="0.5" width="416" height="258" rx="32"></rect>
            <polyline id="graph-path-1" class="group-path" stroke="#7400B8" stroke-width="4" points="0 130 42 80 112 67 181 99 209 152 261 178 300 152 361 130 395 80 417 67"></polyline>
            <polyline id="graph-path-2" class="group-path" stroke="#72E9C7" stroke-width="4" points="0 130 40 154 94 148 143 168 172 140 244 130 288 140 324 104 358 67 386 78 417 118"></polyline>
            <polyline id="graph-path-3" class="group-path" stroke="#48BFE3" stroke-width="4" points="0 130 26 188 84 201 113 168 156 130 209 166 247 149 280 104 326 84 372 104 399 123 417 111"></polyline>
        </g>
        <g id="image-preview-group-1" class="image-preview-group">
            <g transform="translate(234.000000, 304.000000)">
                <rect id="BG" stroke="#CFCFCF" fill="#EEEEEE" x="0.5" y="0.5" width="199" height="199"></rect>
                <g id="image-preview" transform="translate(40.000000, 39.000000)" fill="#CFCFCF" fill-opacity="0.75">
                    <polygon id="Triangle" points="41 0 82 82 0 82"></polygon>
                    <circle id="Oval" cx="81" cy="82" r="40"></circle>
                </g>
            </g>
        </g>
        <g id="image-preview-group-2" class="image-preview-group">
            <g transform="translate(17.000000, 304.000000)">
                <rect id="BG" stroke="#CFCFCF" fill="#EEEEEE" x="0.5" y="0.5" width="199" height="199"></rect>
                <g id="image-preview" transform="translate(40.000000, 39.000000)" fill="#CFCFCF" fill-opacity="0.75">
                    <polygon id="Triangle" points="41 0 82 82 0 82"></polygon>
                    <circle id="Oval" cx="81" cy="82" r="40"></circle>
                </g>
            </g>
        </g>
        <g id="image-preview-group-3" class="image-preview-group">
            <g transform="translate(234.000000, 89.000000)">
                <rect id="BG" stroke="#CFCFCF" fill="#EEEEEE" x="0.5" y="0.5" width="199" height="199"></rect>
                <g id="image-preview" transform="translate(40.000000, 39.000000)" fill="#CFCFCF" fill-opacity="0.75">
                    <polygon id="Triangle" points="41 0 82 82 0 82"></polygon>
                    <circle id="Oval" cx="81" cy="82" r="40"></circle>
                </g>
            </g>
        </g>
        <g id="image-preview-group-4" class="image-preview-group">
            <g transform="translate(17.000000, 89.000000)">
                <rect id="BG" stroke="#CFCFCF" fill="#EEEEEE" x="0.5" y="0.5" width="199" height="199"></rect>
                <g id="image-preview" transform="translate(40.000000, 39.000000)" fill="#CFCFCF" fill-opacity="0.75">
                    <polygon id="Triangle" points="41 0 82 82 0 82"></polygon>
                    <circle id="Oval" cx="81" cy="82" r="40"></circle>
                </g>
            </g>
        </g>
        <g id="header">
            <use fill="black" fill-opacity="1" filter="url(#filter-2)" xlink:href="#path-1"></use>
            <use fill="#80FFDB" fill-rule="evenodd" xlink:href="#path-1"></use>
        </g>
    </g>
</svg>
