<?xml version="1.0" encoding="UTF-8"?>
<svg width="120px" height="120px" viewBox="0 0 120 120" version="1.1" xmlns="http://www.w3.org/2000/svg" xmlns:xlink="http://www.w3.org/1999/xlink">
    <title>icon-play-animation</title>
    <g id="Page-1" stroke="none" stroke-width="1" fill="none" fill-rule="evenodd">
        <g id="icon-play-animation">
            <path d="M31.5857864,81.5857864 L-9.58578644,40.4142136 C-10.366835,39.633165 -10.366835,38.366835 -9.58578644,37.5857864 C-9.21071368,37.2107137 -8.70200585,37 -8.17157288,37 L33,37 C34.1045695,37 35,37.8954305 35,39 L35,80.1715729 C35,81.2761424 34.1045695,82.1715729 33,82.1715729 C32.469567,82.1715729 31.9608592,81.9608592 31.5857864,81.5857864 Z" id="play-icon-1" transform="translate(12.414214, 59.585786) rotate(45.000000) translate(-12.414214, -59.585786) " fill="currentColor"></path>
            <path d="M63.5857864,81.5857864 L22.4142136,40.4142136 C21.633165,39.633165 21.633165,38.366835 22.4142136,37.5857864 C22.7892863,37.2107137 23.2979941,37 23.8284271,37 L65,37 C66.1045695,37 67,37.8954305 67,39 L67,80.1715729 C67,81.2761424 66.1045695,82.1715729 65,82.1715729 C64.469567,82.1715729 63.9608592,81.9608592 63.5857864,81.5857864 Z" id="play-icon-2" transform="translate(44.414214, 59.585786) rotate(45.000000) translate(-44.414214, -59.585786) " fill="currentColor"></path>
            <path d="M95.5857864,81.5857864 L54.4142136,40.4142136 C53.633165,39.633165 53.633165,38.366835 54.4142136,37.5857864 C54.7892863,37.2107137 55.2979941,37 55.8284271,37 L97,37 C98.1045695,37 99,37.8954305 99,39 L99,80.1715729 C99,81.2761424 98.1045695,82.1715729 97,82.1715729 C96.469567,82.1715729 95.9608592,81.9608592 95.5857864,81.5857864 Z" id="play-icon-3" transform="translate(76.414214, 59.585786) rotate(45.000000) translate(-76.414214, -59.585786) " fill="currentColor"></path>
        </g>
    </g>
</svg>
